<svg width="359" height="654" viewBox="0 0 359 654" fill="none" xmlns="http://www.w3.org/2000/svg">
<path d="M0 39.8089C0 22.1358 14.3269 7.80896 32 7.80896H89.75H134.625H145.54C152.988 7.80896 160.151 4.89688 167.132 2.30274C170.612 1.00958 174.826 0 179.5 0C184.174 0 188.388 1.00958 191.868 2.30274C198.849 4.89688 206.012 7.80896 213.46 7.80896H224.375H269.25H327C344.673 7.80896 359 22.1358 359 39.809V622C359 639.673 344.673 654 327 654H32C14.3269 654 0 639.673 0 622V39.8089Z" fill="white"/>
<circle cx="180" cy="12" r="4" fill="#6A5AE0"/>
</svg>
